<?xml version="1.0" encoding="utf-8"?>
<!-- Generator: Adobe Illustrator 24.0.1, SVG Export Plug-In . SVG Version: 6.00 Build 0)  -->
<svg version="1.1" id="Layer_1" xmlns="http://www.w3.org/2000/svg" xmlns:xlink="http://www.w3.org/1999/xlink" x="0px" y="0px"
	 viewBox="0 0 1000 1000" style="enable-background:new 0 0 1000 1000;" xml:space="preserve">
<style type="text/css">
	.st0{fill:none;stroke:#231F20;stroke-width:22.6772;stroke-linecap:round;stroke-miterlimit:10;}
	.st1{fill:none;stroke:#231F20;stroke-width:22.6772;stroke-miterlimit:10;}
	.st2{fill:none;stroke:#FFFFFF;stroke-width:56.6929;stroke-miterlimit:10;}
</style>
<g>
	<path class="st0" d="M670.7,544.8c16-8.8,35.7-18.1,58.9-26.1c21.5-7.4,41.3-12,58.3-15"/>
	<path class="st1" d="M751.7,731.2c19.2-26.3,35.5-47,47.4-61.6c9.7-11.9,14.6-18.1,20.5-23.9c14-13.9,24.5-19.6,40.7-38.2
		c30.7-35.1,19.5-47.2,58.3-134c31.5-70.6,51.1-94.4,38.3-116.2c-8.8-15-30.3-24.5-47.7-20.6c-20,4.4-27.5,24.9-68,102.4
		c-25.1,48.1-34.6,63.9-49.2,64.7c-16.7,0.9-30.5-18.4-37.1-27.8c-21.3-29.8-22.5-62.7-23.3-84.3c-2.7-71.9,1.3-142.6,2.9-168.7
		c3.9-65.7,6.1-97.4-14.1-111.7c-8.4-6-21.4-9.4-31.6-4.9c-21.9,9.7-21.8,51.5-23.1,99.1c-2.3,82-9,178.6-14.6,179
		c-4.8,0.3-18.5-67.1-22.8-149.6c-4.8-91.7,5.2-138.9-22.1-155.2c-15.3-9.1-39.5-6.6-53,5.8c-25.7,23.5-0.2,70.7,10.2,175.8
		c6.7,67.3,3.8,124.3-0.4,124.7c-5,0.4-25.8-77.3-36.5-167.2c-5.1-42.6-6.4-75.4-27.7-85.4c-14.5-6.8-35.7-1.8-46.2,10.7
		c-14.6,17.3-4.3,43.2,7.3,91.8c18,75.3,22,134.3,18,135.2c-2.7,0.6-13-24.3-43.8-88.3c-7.2-15-15.6-31.8-31.3-35.3
		c-8.8-2-19.7,0.2-26.2,5.5c-22.7,18.7,2.2,82.4,46.3,209.2c17.3,49.8,30.8,89.9,38.9,114.1"/>
	<path class="st2" d="M535.8,916.7c-34.3-2.9-78.1-9.2-127.6-23.4c-58-16.7-57.1-25.2-106.3-35.7c-101.9-21.7-129.6-23.8-129.6-23.8
		c-16.3-1.2-40.1-2.3-49.2-17.8c-5.3-9.1-5.9-23.3,0.8-32.8c9.6-13.6,31.8-15,121.9-4.7c62.7,7.1,86.7,11.8,87.9,7.6
		c1.9-6.6-55.1-29.1-82.3-38.9c-26.8-9.7-62.5-18.1-131.8-41.1l0,0c-33.4-10-50.4-15-56.3-30.3c-6.2-16.3,2.1-39.7,17.6-49.9
		c21.4-14,50.8,1.7,103.9,23.1c71,28.7,149.3,52.7,152.2,46.7c2.6-5.4-52.1-42.2-115.9-73.5c-87.2-42.9-136.6-48.9-144-84
		c-3.8-18,4.5-39.6,18.2-46.6c14.7-7.6,33,3.1,65.1,21.2c33.2,18.7,67.1,35.9,100,55.1c36.5,21.3,113.7,63.6,118.7,56.3
		c4.3-6.2-43.1-48.5-82.2-78.7c-76.3-59-120.8-72.1-121.8-105.6c-0.5-16.5,9.8-37.9,26.3-44.1c39.3-14.7,99.6,61.1,204.5,146.4
		c0,0,23.6,19.2,63.8,39c21.9,10.8,32.9,13.7,44.4,14.2c18,0.8,48.9-2.5,54.4-18.1c1.4-3.9,2.3-11.8-31.4-51.2
		c-15.3-17.9-42.8-48.3-59.1-66.5c-17.4-19.5-22.9-25.9-23.8-36.7c-1.5-19.3,12.4-42.1,29.5-45.4c6.1-1.2,15.1-0.3,60.6,44
		c32.3,31.5,32.9,36.2,60.1,60.8c15.2,13.7,21.7,18.3,34.2,31.6c6.6,7,17.7,19.5,34.8,44.3c28,40.3,40.9,61.3,53.4,92.6
		c7.9,19.7,17.4,48.6,22.2,85.6"/>
	<path class="st1" d="M535.9,916.4c-96.2-11-164.3-31.7-209.8-49.3c-12.9-5-13.9-5.9-24.2-9.5c-99.2-34.9-161.8-10.4-178.7-41.8
		c-5.5-10.2-5.2-24.3,0.8-32.8c9.6-13.6,31.8-15,121.9-4.8c62.6,7.1,86.7,11.8,87.9,7.6c1.9-6.6-55.1-29.1-82.3-38.9
		c-26.8-9.7-62.5-18.1-131.8-41.1l0,0c-33.4-10-50.4-15-56.3-30.3c-6.2-16.3,2.1-39.7,17.6-49.9c21.4-14,50.8,1.7,103.9,23.1
		c71,28.7,149.3,52.7,152.2,46.7c2.6-5.4-52.1-42.2-115.9-73.5c-87.1-42.9-136.6-49-144-84.1c-3.8-18,4.5-39.6,18.2-46.6
		c14.7-7.6,33,3.1,65.1,21.2c33.2,18.7,67.1,35.9,100,55.1c36.5,21.3,113.7,63.6,118.7,56.3c4.3-6.2-43.1-48.4-82.2-78.7
		c-76.3-59-120.8-72.1-121.8-105.6c-0.5-16.5,9.8-37.9,26.3-44.1c39.3-14.7,99.6,61.1,204.5,146.4c0,0,23.6,19.2,63.8,39
		c21.9,10.8,32.9,13.7,44.4,14.2c18,0.8,48.9-2.5,54.4-18.1c1.4-3.9,2.3-11.8-31.4-51.2c-15.3-18-42.8-48.3-59.1-66.5
		c-17.4-19.5-22.9-25.9-23.8-36.7c-1.5-19.3,12.4-42.1,29.5-45.4c6.1-1.2,15.1-0.3,60.6,44c32.3,31.5,32.9,36.2,60.1,60.8
		c15.2,13.7,21.7,18.3,34.2,31.6c6.6,7,17.7,19.5,34.8,44.3c18,26,30.3,44.8,40.9,65.5c2.5,4.9,7.3,14.7,12.5,27.1
		c8.7,20.9,19.4,51.3,26.3,90.6"/>
</g>
</svg>
